<?xml version="1.0" standalone="no"?>
<!DOCTYPE svg PUBLIC "-//W3C//DTD SVG 20010904//EN"
 "http://www.w3.org/TR/2001/REC-SVG-20010904/DTD/svg10.dtd">
<svg version="1.0" xmlns="http://www.w3.org/2000/svg"
 width="1024.000000pt" height="1026.000000pt" viewBox="0 0 1024.000000 1026.000000"
 preserveAspectRatio="xMidYMid meet">

<g transform="translate(0.000000,1026.000000) scale(0.100000,-0.100000)"
fill="#000000" stroke="none">
<path d="M0 5130 l0 -5130 5120 0 5120 0 0 5130 0 5130 -5120 0 -5120 0 0
-5130z m2250 855 c0 -12 -4 -13 -18 -6 -13 7 -23 6 -30 -1 -14 -14 -27 -4 -17
11 10 17 65 14 65 -4z m-128 -65 c22 -1 22 -1 4 -15 -12 -9 -17 -22 -13 -35 6
-22 -3 -26 -20 -9 -8 8 -17 8 -33 -1 -20 -11 -21 -10 -15 10 5 15 1 26 -12 35
-17 14 -17 14 4 15 13 0 28 10 34 22 l12 22 8 -22 c5 -14 17 -22 31 -22z m275
0 c13 0 13 -2 2 -17 -8 -9 -13 -25 -11 -35 3 -17 1 -18 -18 -8 -16 9 -25 8
-37 -1 -13 -11 -14 -10 -11 7 1 12 -3 28 -11 37 -12 15 -11 17 3 17 9 0 21 9
28 20 l13 21 14 -21 c7 -11 20 -20 28 -20z m-444 -101 c4 -14 11 -20 21 -16 8
3 18 2 21 -2 3 -5 -2 -12 -11 -15 -9 -4 -13 -13 -10 -24 5 -15 0 -18 -29 -18
-30 0 -35 3 -35 23 0 13 -4 23 -10 23 -5 0 -10 5 -10 10 0 6 9 10 20 10 11 0
20 7 20 15 0 23 17 18 23 -6z m301 -9 c18 0 22 -15 6 -25 -5 -3 -10 -15 -10
-26 0 -16 -4 -19 -20 -14 -12 4 -28 1 -37 -7 -15 -12 -16 -10 -9 15 5 20 2 29
-9 33 -22 9 -18 24 5 24 11 0 23 7 27 16 6 16 7 16 18 0 7 -9 20 -16 29 -16z
m246 15 c0 -8 9 -15 19 -15 25 0 36 -16 16 -24 -11 -4 -14 -13 -9 -32 6 -24 5
-25 -14 -15 -11 6 -28 8 -36 5 -11 -4 -16 0 -16 14 0 12 -5 24 -12 28 -7 5 -4
10 10 15 12 5 22 15 22 24 0 8 5 15 10 15 6 0 10 -7 10 -15z m-383 -135 c25 0
26 -1 8 -20 -9 -10 -15 -25 -12 -32 3 -10 -6 -13 -34 -13 -30 0 -38 3 -34 14
3 8 -2 22 -11 32 -16 18 -16 19 4 19 12 0 27 10 34 23 l13 22 3 -22 c3 -17 10
-23 29 -23z m253 14 c0 -8 9 -14 20 -14 11 0 20 -4 20 -10 0 -5 -4 -10 -10
-10 -5 0 -10 -11 -10 -25 0 -22 -3 -24 -19 -15 -13 7 -22 7 -26 0 -11 -17 -26
-11 -23 10 2 10 -6 26 -17 34 -19 15 -19 15 7 16 18 0 29 7 33 20 7 22 25 18
25 -6z m-530 -14 c24 0 26 -15 4 -24 -10 -4 -13 -13 -9 -26 6 -20 -9 -28 -20
-10 -4 7 -13 6 -27 -1 -19 -10 -20 -9 -15 10 3 11 1 24 -4 27 -14 8 -11 24 5
24 8 0 17 8 21 18 6 16 7 16 16 0 6 -10 19 -18 29 -18z m808 12 c9 -9 17 -31
18 -47 1 -28 -1 -30 -38 -30 -30 -1 -37 2 -33 13 3 8 -2 23 -11 33 -16 18 -16
19 9 19 17 0 27 5 27 15 0 19 6 19 28 -3z m2361 -78 c39 -49 16 -115 -44 -130
-47 -12 -103 45 -91 92 17 65 96 87 135 38z m731 -274 l0 -300 -70 0 -70 0 0
300 0 300 70 0 70 0 0 -300z m-1943 262 c42 -22 106 -87 101 -104 -2 -5 -29
-23 -60 -40 l-56 -32 -23 28 c-17 19 -34 27 -60 28 -44 1 -59 -7 -59 -32 0
-22 29 -39 110 -65 95 -30 136 -59 155 -110 34 -87 0 -176 -83 -217 -59 -29
-198 -32 -248 -6 -41 22 -106 95 -102 115 2 9 29 30 60 47 l57 30 21 -26 c37
-48 139 -61 155 -21 9 26 -23 48 -111 77 -114 38 -164 94 -164 184 1 97 102
178 211 169 30 -3 74 -14 96 -25z m2374 -177 l57 -190 25 85 c41 134 87 292
87 296 0 2 34 4 75 4 64 0 75 -3 75 -17 0 -19 -62 -222 -130 -423 l-45 -135
-89 0 -89 0 -88 275 c-49 151 -89 281 -89 288 0 10 19 12 77 10 l77 -3 57
-190z m-4218 155 c3 -13 14 -20 29 -20 21 -1 21 -2 6 -14 -11 -8 -15 -20 -11
-34 6 -24 -6 -29 -25 -10 -9 9 -15 9 -24 0 -19 -19 -29 -14 -22 12 4 17 0 27
-13 35 -16 9 -16 10 5 11 15 0 26 7 29 20 3 11 9 20 13 20 4 0 10 -9 13 -20z
m304 -20 c13 0 13 -3 3 -15 -7 -8 -10 -24 -7 -35 6 -23 -3 -26 -21 -8 -9 9
-15 9 -24 0 -19 -19 -31 -14 -25 10 4 13 0 26 -10 33 -14 11 -13 13 10 19 16
4 27 13 27 23 0 14 3 13 16 -5 8 -12 22 -22 31 -22z m275 0 c21 -1 21 -2 6
-14 -11 -8 -15 -20 -11 -35 5 -21 4 -22 -16 -11 -17 9 -26 9 -37 -1 -11 -9
-14 -7 -14 13 0 13 -5 29 -12 36 -9 9 -8 12 5 12 9 0 22 10 28 22 l12 22 8
-22 c5 -14 17 -22 31 -22z m5068 -50 l0 -60 40 0 40 0 0 -65 0 -65 -40 0 -41
0 3 -72 3 -73 38 -3 37 -3 0 -65 0 -64 -64 0 c-117 0 -154 48 -155 198 l-1 82
-30 0 -30 0 0 65 0 65 30 0 c28 0 30 2 30 39 l0 39 63 20 c34 11 65 20 70 21
4 1 7 -26 7 -59z m-5208 -60 c22 0 24 -18 3 -26 -10 -4 -13 -13 -9 -26 5 -17
3 -19 -15 -13 -13 4 -29 1 -38 -7 -14 -11 -16 -10 -11 14 3 17 0 29 -8 32 -21
8 -17 26 5 26 12 0 23 9 27 23 l7 22 10 -22 c6 -13 18 -23 29 -23z m-553 -1
c23 -9 24 -11 8 -20 -13 -8 -15 -17 -10 -37 6 -25 5 -26 -11 -13 -15 12 -21
13 -38 2 -19 -12 -20 -11 -14 13 5 19 2 28 -9 32 -21 9 -19 24 4 24 10 0 22 8
26 18 5 12 9 13 12 4 3 -7 17 -18 32 -23z m251 16 c0 -8 9 -15 20 -15 22 0 27
-15 9 -26 -6 -3 -8 -17 -4 -32 5 -22 4 -24 -9 -13 -9 8 -26 11 -40 7 -20 -5
-23 -3 -19 14 3 12 -1 22 -11 26 -23 9 -20 24 4 24 11 0 23 7 26 15 4 8 10 15
15 15 5 0 9 -7 9 -15z m553 -5 c3 -11 13 -20 22 -20 14 0 15 -3 5 -15 -7 -8
-10 -24 -7 -35 4 -17 2 -18 -14 -9 -11 5 -29 7 -39 4 -15 -5 -18 -3 -14 10 4
9 -1 24 -11 35 -18 19 -17 20 8 20 17 0 27 5 27 15 0 22 17 18 23 -5z m2702
-17 c19 -9 31 -10 33 -3 2 5 34 10 73 10 l69 0 0 -205 0 -205 -70 0 c-55 0
-70 3 -70 15 0 12 -6 11 -32 -5 -36 -22 -101 -26 -145 -9 -73 27 -123 109
-123 204 0 105 52 182 140 209 48 15 77 12 125 -11z m1450 -6 c61 -34 94 -89
102 -170 l6 -67 -142 0 c-82 0 -141 -4 -141 -9 0 -17 44 -41 74 -41 16 0 44 5
62 12 28 10 35 8 73 -18 22 -16 41 -34 41 -40 0 -5 -12 -19 -27 -30 -72 -53
-181 -59 -264 -16 -45 23 -59 37 -81 81 -102 199 103 404 297 298z m-2514 0
c91 -48 135 -149 109 -248 -17 -62 -51 -103 -112 -133 -152 -76 -318 27 -318
198 0 42 37 121 72 153 61 57 172 70 249 30z m480 -3 c27 -15 56 -38 64 -50
15 -23 14 -25 -37 -58 l-53 -34 -31 19 c-40 24 -65 24 -98 -2 -33 -26 -37 -88
-6 -119 24 -24 77 -26 107 -5 21 14 26 14 72 -9 27 -14 53 -30 56 -36 10 -17
-70 -88 -112 -99 -78 -22 -149 -9 -210 36 -75 57 -98 194 -47 280 59 101 189
134 295 77z m2328 7 c7 -10 15 -10 39 3 44 22 117 21 157 -4 59 -36 70 -75 70
-245 l0 -150 -67 -3 -68 -3 0 123 c0 143 -9 168 -64 168 -54 0 -61 -18 -65
-162 l-3 -129 -67 3 -66 3 -2 90 c-1 50 1 140 4 202 l6 112 46 3 c64 4 72 3
80 -11z m1056 -191 l0 -205 -67 -3 c-56 -2 -68 0 -68 13 0 19 -3 19 -42 -5
-66 -40 -149 -18 -195 51 -27 41 -28 47 -31 196 l-4 153 71 0 71 0 0 -123 c0
-145 6 -160 65 -155 56 4 65 27 65 171 l0 118 68 -3 67 -3 0 -205z m216 175
c4 -16 7 -25 8 -19 1 16 40 40 79 48 l32 8 0 -76 0 -76 -31 0 c-20 0 -40 -10
-60 -29 -28 -29 -29 -32 -29 -135 l0 -106 -70 0 -70 0 0 204 0 205 33 4 c17 2
48 4 67 3 30 -1 36 -5 41 -31z m472 5 c57 -36 93 -102 96 -177 l2 -53 -140 0
c-78 0 -141 -4 -141 -9 0 -30 68 -47 125 -31 42 12 46 11 84 -16 22 -16 41
-32 41 -36 0 -14 -63 -58 -98 -68 -191 -53 -344 95 -292 281 12 42 70 105 114
125 17 7 60 13 97 14 55 0 72 -4 112 -30z m-3810 -178 c-2 -106 -5 -197 -8
-203 -4 -5 -35 -9 -71 -9 l-64 0 0 205 0 206 73 -3 72 -3 -2 -193z m-2328 -87
l0 -50 -460 -3 c-253 -1 -470 0 -482 3 -20 5 -23 12 -23 49 0 23 3 46 7 49 3
4 221 6 482 5 l476 -3 0 -50z m-9 -170 c-3 -13 -11 -36 -16 -50 l-10 -25 -444
0 -445 0 -9 33 c-6 17 -13 40 -17 50 -7 16 20 17 470 17 l477 0 -6 -25z m5429
-250 l0 -140 -79 -2 c-74 -2 -80 -1 -107 27 -73 73 -1 208 93 172 28 -10 28
-10 28 32 0 50 6 58 40 54 l25 -3 0 -140z m775 91 c0 -15 7 -26 20 -29 14 -3
20 -14 20 -32 0 -18 -6 -29 -20 -32 -29 -8 -28 -68 1 -83 13 -7 19 -19 17 -33
-3 -19 -9 -22 -42 -21 -50 2 -66 23 -66 85 0 32 -5 49 -15 53 -19 7 -20 55 -1
62 8 3 16 14 19 24 3 10 15 20 28 23 13 2 27 5 32 6 4 0 7 -10 7 -23z m-6301
-23 c-6 -10 -29 -33 -51 -50 l-40 -33 -284 0 -284 0 -45 41 c-25 23 -45 45
-45 50 0 5 170 9 380 9 360 0 380 -1 369 -17z m4994 -11 c23 -3 57 -60 57 -97
0 -41 -34 -93 -65 -101 -14 -3 -41 -3 -60 0 -20 4 -35 3 -34 -1 1 -4 1 -25 0
-45 -1 -35 -3 -38 -31 -38 l-30 0 0 139 c0 96 4 141 11 143 11 4 114 3 152 0z
m233 -7 c46 -19 70 -72 54 -121 -30 -91 -155 -102 -195 -17 -33 68 15 150 88
152 10 1 33 -6 53 -14z m494 -1 c22 -9 40 -19 40 -23 0 -4 -14 -15 -30 -25
-24 -14 -34 -15 -45 -6 -20 17 -55 -5 -55 -34 0 -34 26 -53 50 -38 20 12 62 3
73 -15 15 -24 -36 -53 -92 -53 -78 0 -127 88 -87 159 27 49 79 62 146 35z
m190 6 c10 -6 21 -6 24 -1 3 4 17 6 31 3 26 -4 26 -4 23 -101 l-3 -96 -78 -2
c-75 -3 -80 -2 -108 26 -21 22 -29 39 -29 66 0 41 22 89 47 104 23 13 69 14
93 1z m261 -11 c13 -22 11 -29 -13 -38 -14 -5 -28 -5 -35 1 -13 11 -36 1 -28
-12 3 -4 17 -11 32 -15 62 -15 85 -78 41 -109 -41 -29 -148 -11 -148 24 0 5
10 14 21 21 16 8 27 8 45 -2 13 -7 27 -10 30 -6 10 9 -6 27 -24 27 -58 0 -86
82 -39 115 26 19 105 15 118 -6z m954 -4060 c35 -72 110 -144 166 -159 21 -6
39 -14 39 -19 0 -5 -21 -16 -47 -26 -63 -24 -145 -107 -165 -165 -8 -24 -19
-45 -24 -47 -6 -2 -20 21 -33 52 -27 64 -98 133 -166 161 -25 11 -45 22 -45
25 0 4 25 17 55 29 65 26 133 95 161 162 10 27 21 48 24 47 3 0 18 -27 35 -60z"/>
<path d="M5240 5320 c-26 -26 -28 -100 -2 -123 37 -33 112 -23 130 19 17 37
15 68 -9 98 -26 33 -88 37 -119 6z"/>
<path d="M6638 5339 c-10 -5 -18 -17 -18 -25 0 -13 11 -15 63 -10 34 3 66 5
71 5 5 1 1 10 -9 21 -20 22 -77 27 -107 9z"/>
<path d="M4123 5314 c-22 -22 -25 -32 -20 -67 7 -49 28 -67 78 -67 46 0 69 27
69 82 0 74 -74 105 -127 52z"/>
<path d="M8681 5344 c-34 -14 -41 -33 -13 -35 9 -1 41 -3 70 -5 55 -4 63 3 35
28 -27 23 -57 27 -92 12z"/>
<path d="M7980 4746 c-28 -35 11 -93 48 -70 35 22 22 84 -18 84 -10 0 -23 -7
-30 -14z"/>
<path d="M7502 4748 c-7 -7 -12 -25 -12 -40 0 -21 6 -29 25 -34 37 -9 55 2 55
34 0 31 -16 52 -40 52 -9 0 -21 -5 -28 -12z"/>
<path d="M7746 4747 c-22 -16 -18 -55 7 -71 39 -24 79 44 41 71 -10 7 -21 13
-24 13 -3 0 -14 -6 -24 -13z"/>
<path d="M8437 4739 c-28 -39 5 -79 53 -64 14 4 20 15 20 34 0 50 -46 69 -73
30z"/>
</g>
</svg>
